<svg width="467" height="174" viewBox="0 0 467 174" fill="none" xmlns="http://www.w3.org/2000/svg">
<path d="M57.4193 47.0941C63.4642 35.8916 79.5358 35.8917 85.5807 47.0941L120.687 112.152C126.439 122.812 118.719 135.75 106.606 135.75H36.3939C24.2808 135.75 16.5608 122.812 22.3131 112.152L57.4193 47.0941Z" fill="black" stroke="white" stroke-width="16"/>
<path d="M196.581 126.906C190.536 138.108 174.464 138.108 168.419 126.906L133.313 61.8482C127.561 51.1881 135.281 38.25 147.394 38.25L217.606 38.25C229.719 38.25 237.439 51.1881 231.687 61.8482L196.581 126.906Z" fill="black" stroke="white" stroke-width="16"/>
<path d="M267.399 100.379C257.766 94.0608 257.766 79.9392 267.399 73.6209L315.975 41.7613C326.615 34.7827 340.75 42.4157 340.75 55.1405L340.75 118.86C340.75 131.584 326.615 139.217 315.975 132.239L267.399 100.379Z" fill="black" stroke="white" stroke-width="16"/>
<path d="M446.813 100.347C456.381 94.0209 456.381 79.9791 446.813 73.6534L398.824 41.925C388.187 34.8924 374 42.5202 374 55.2716L374 118.728C374 131.48 388.187 139.108 398.824 132.075L446.813 100.347Z" fill="black" stroke="white" stroke-width="16"/>
</svg>
