<svg viewBox="-100 0 1900 1000" xmlns="http://www.w3.org/2000/svg">
<path d="M250.999 0H270.999C270.999 0 270.999 595 270.999 637C270.999 679 250.999 679 250.999 679V0Z" />
<path d="M549.256 473C579.255 473 613 473 628.256 473C625 478 625 506 628.256 511C635.012 511 581.256 511 549.256 511C517.256 511 519.256 473 549.256 473Z" />
<path d="M1031 511C1001 511 995 511 995 511L995 473C995 473 999 473 1031 473C1063 473 1061 511 1031 511Z" />
<circle cx="790" cy="492" r="19" />
<path d="M1324 382H1399L1404.5 411H1324V382Z" />
<path d="M1324 582H1437.5L1443 611H1324V582Z" />
<path d="M0 904C0 904 39 1000 67.55 1000C96.1 1000 0 1000 0 1000V904Z" />
<path d="M130.85 96C130.85 96 91.8496 4.21991e-06 63.2996 1.72399e-06C34.7496 -7.71932e-07 130.85 7.62939e-06 130.85 7.62939e-06L130.85 96Z" />
<path d="M429.85 96C429.85 96 468.93 3.41652e-06 497.539 5.91758e-06C526.148 8.41864e-06 429.85 0 429.85 0L429.85 96Z" />
<path d="M901 904C901 904 861.92 1000 833.311 1000C804.702 1000 901 1000 901 1000L901 904Z" />
<path d="M1182 904C1182 904 1142.92 1000 1114.31 1000C1085.7 1000 1182 1000 1182 1000L1182 904Z" />
<path d="M1800 904C1800 904 1760.92 1000 1732.31 1000C1703.7 1000 1800 1000 1800 1000L1800 904Z" />
<path d="M430 904C430 904 469.081 1000 497.689 1000H362.311C390.919 1000 430 904 430 904Z" />
<path d="M678 904C678 904 717.08 1000 745.689 1000C774.298 1000 678 1000 678 1000L678 904Z" />
<path d="M1501 904C1501 904 1540.08 1000 1568.69 1000C1597.3 1000 1501 1000 1501 1000L1501 904Z" />
<path d="M901 96C901 96 861.92 3.41652e-06 833.311 5.91758e-06C804.702 8.41864e-06 901 0 901 0L901 96Z" />
<path d="M1182 96C1182 96 1142.92 3.41652e-06 1114.31 5.91758e-06C1085.7 8.41864e-06 1182 0 1182 0L1182 96Z" />
<path d="M678 96C678 96 717.08 1.18423e-05 745.689 9.34121e-06C774.298 6.84014e-06 678 1.52588e-05 678 1.52588e-05L678 96Z" />
<path d="M1716.69 0C1688.08 2.50106e-06 1649 96 1649 96C1648.99 95.9711 1609.92 -2.50069e-06 1581.31 0H1716.69Z" />
</svg>
