<svg viewBox="0 0 174 174" xmlns="http://www.w3.org/2000/svg">
<path d="M83.9875 1.31488C85.4127 -0.438312 88.0892 -0.438312 89.5144 1.31488V1.31488C90.8259 2.92816 93.2346 3.07971 94.7379 1.64352V1.64352C96.3716 0.0827702 99.027 0.418225 100.221 2.33622V2.33622C101.32 4.10115 103.691 4.5534 105.362 3.31695V3.31695C107.179 1.97326 109.771 2.63888 110.716 4.69142V4.69142C111.585 6.58016 113.88 7.32598 115.693 6.30877V6.30877C117.664 5.20333 120.152 6.18862 120.832 8.34334V8.34334C121.457 10.3261 123.641 11.3537 125.568 10.5718V10.5718C127.661 9.72206 130.007 11.0115 130.411 13.2344V13.2344C130.783 15.2799 132.821 16.5732 134.83 16.0388V16.0388C137.014 15.4582 139.179 17.0314 139.301 19.2874V19.2874C139.414 21.3635 141.274 22.9019 143.334 22.6236V22.6236C145.573 22.3212 147.524 24.1534 147.363 26.407V26.407C147.215 28.4808 148.867 30.2402 150.946 30.2223V30.2223C153.205 30.2029 154.911 32.2652 154.469 34.4809V34.4809C154.062 36.5197 155.48 38.4723 157.545 38.7151V38.7151C159.789 38.979 161.223 41.2389 160.507 43.3816V43.3816C159.847 45.3533 161.01 47.4683 163.028 47.9681V47.9681C165.221 48.5111 166.361 50.9329 165.381 52.9689V52.9689C164.48 54.8425 165.368 57.0865 167.308 57.8352V57.8352C169.416 58.6489 170.243 61.1944 169.016 63.0916V63.0916C167.887 64.8374 168.487 67.1751 170.317 68.161V68.161C172.307 69.2324 172.808 71.8615 171.353 73.59V73.59C170.014 75.1805 170.317 77.575 172.009 78.7826V78.7826C173.848 80.0948 174.016 82.7661 172.356 84.2985V84.2985C170.828 85.7087 170.828 88.1222 172.356 89.5324V89.5324C174.016 91.0648 173.848 93.736 172.009 95.0483V95.0483C170.317 96.2559 170.014 98.6504 171.353 100.241V100.241C172.808 101.969 172.307 104.598 170.317 105.67V105.67C168.487 106.656 167.887 108.993 169.016 110.739V110.739C170.243 112.636 169.416 115.182 167.308 115.996V115.996C165.368 116.744 164.48 118.988 165.381 120.862V120.862C166.361 122.898 165.221 125.32 163.028 125.863V125.863C161.01 126.363 159.847 128.478 160.507 130.449V130.449C161.223 132.592 159.789 134.852 157.545 135.116V135.116C155.48 135.359 154.062 137.311 154.469 139.35V139.35C154.911 141.566 153.205 143.628 150.946 143.609V143.609C148.867 143.591 147.215 145.35 147.363 147.424V147.424C147.524 149.677 145.573 151.51 143.334 151.207V151.207C141.274 150.929 139.414 152.467 139.301 154.543V154.543C139.179 156.799 137.014 158.373 134.83 157.792V157.792C132.821 157.258 130.783 158.551 130.411 160.596V160.596C130.007 162.819 127.661 164.109 125.568 163.259V163.259C123.641 162.477 121.457 163.505 120.832 165.488V165.488C120.152 167.642 117.664 168.628 115.693 167.522V167.522C113.88 166.505 111.585 167.251 110.716 169.139V169.139C109.771 171.192 107.179 171.858 105.362 170.514V170.514C103.691 169.277 101.32 169.73 100.221 171.495V171.495C99.027 173.413 96.3716 173.748 94.7379 172.187V172.187C93.2346 170.751 90.8259 170.903 89.5144 172.516V172.516C88.0892 174.269 85.4127 174.269 83.9875 172.516V172.516C82.6761 170.903 80.2673 170.751 78.764 172.187V172.187C77.1303 173.748 74.475 173.413 73.2807 171.495V171.495C72.1818 169.73 69.811 169.277 68.1396 170.514V170.514C66.3232 171.858 63.7308 171.192 62.7864 169.139V169.139C61.9173 167.251 59.6219 166.505 57.8087 167.522V167.522C55.8382 168.628 53.3496 167.642 52.6699 165.488V165.488C52.0445 163.505 49.8606 162.477 47.9342 163.259V163.259C45.8407 164.109 43.4953 162.819 43.091 160.596V160.596C42.719 158.551 40.6811 157.258 38.6719 157.792V157.792C36.4884 158.373 34.3231 156.799 34.2006 154.543V154.543C34.0879 152.467 32.2282 150.929 30.1678 151.207V151.207C27.9288 151.51 25.9777 149.677 26.1389 147.424V147.424C26.2873 145.35 24.6351 143.591 22.5561 143.609V143.609C20.2968 143.628 18.5907 141.566 19.0331 139.35V139.35C19.4403 137.311 18.0216 135.359 15.9568 135.116V135.116C13.7128 134.852 12.2787 132.592 12.9953 130.449V130.449C13.6547 128.478 12.492 126.363 10.4739 125.863V125.863C8.28074 125.32 7.14114 122.898 8.12067 120.862V120.862C9.02202 118.988 8.13354 116.744 6.19396 115.996V115.996C4.08617 115.182 3.25909 112.636 4.48607 110.739V110.739C5.61513 108.993 5.0149 106.656 3.18446 105.67V105.67C1.19526 104.598 0.69374 101.969 2.14883 100.241V100.241C3.4878 98.6504 3.1853 96.2559 1.49285 95.0483V95.0483C-0.34637 93.736 -0.514428 91.0648 1.14582 89.5324V89.5324C2.67357 88.1222 2.67357 85.7087 1.14582 84.2985V84.2985C-0.514428 82.7661 -0.34637 80.0948 1.49286 78.7826V78.7826C3.1853 77.575 3.4878 75.1805 2.14883 73.59V73.59C0.69374 71.8615 1.19526 69.2324 3.18446 68.161V68.161C5.0149 67.1751 5.61513 64.8374 4.48607 63.0916V63.0916C3.25908 61.1944 4.08617 58.6489 6.19396 57.8352V57.8352C8.13354 57.0865 9.02202 54.8425 8.12067 52.9689V52.9689C7.14114 50.9329 8.28074 48.5111 10.4739 47.9681V47.9681C12.492 47.4683 13.6547 45.3533 12.9953 43.3816V43.3816C12.2787 41.2389 13.7128 38.979 15.9568 38.7151V38.7151C18.0216 38.4723 19.4403 36.5197 19.0331 34.4809V34.4809C18.5907 32.2652 20.2968 30.2029 22.5561 30.2223V30.2223C24.6351 30.2402 26.2873 28.4808 26.1389 26.407V26.407C25.9777 24.1534 27.9288 22.3212 30.1678 22.6236V22.6236C32.2282 22.9019 34.0879 21.3635 34.2006 19.2874V19.2874C34.3231 17.0314 36.4884 15.4582 38.6719 16.0388V16.0388C40.6811 16.5732 42.719 15.2799 43.091 13.2344V13.2344C43.4953 11.0115 45.8407 9.72206 47.9342 10.5718V10.5718C49.8606 11.3537 52.0445 10.3261 52.6699 8.34334V8.34334C53.3496 6.18862 55.8382 5.20333 57.8087 6.30877V6.30877C59.6219 7.32598 61.9173 6.58016 62.7864 4.69142V4.69142C63.7308 2.63888 66.3232 1.97326 68.1396 3.31695V3.31695C69.811 4.5534 72.1818 4.10115 73.2807 2.33622V2.33622C74.475 0.418225 77.1303 0.0827704 78.764 1.64352V1.64352C80.2673 3.07971 82.6761 2.92816 83.9875 1.31488V1.31488Z"/>
</svg>
